<svg width="668" height="668" viewBox="0 0 668 668" fill="none" xmlns="http://www.w3.org/2000/svg">
<path d="M419.723 404.231L418.547 404.323L418.83 405.468C426.655 437.109 418.148 472.149 393.487 496.81C355.896 534.401 295.002 534.401 257.412 496.81L256.704 496.103L255.997 496.81L222.332 530.476L189.374 497.518L223.039 463.852L223.746 463.145L223.039 462.438L188.667 428.066L187.96 427.359L187.253 428.066L153.588 461.731L120.629 428.773L154.295 395.108L155.002 394.401L154.295 393.693L103.443 342.842L136.401 309.884L170.067 343.549L170.774 344.256L171.481 343.549L343.342 171.688L344.049 170.981L343.342 170.273L309.677 136.608L342.635 103.65L393.487 154.502L394.194 155.209L394.901 154.502L428.566 120.836L461.524 153.794L427.859 187.46L427.152 188.167L427.859 188.874L462.231 223.246L462.938 223.953L463.645 223.246L497.311 189.581L530.269 222.539L494.369 258.438L493.82 258.988L494.217 259.657C516.157 296.564 511.055 344.87 479.417 376.507C462.404 393.521 441.49 402.53 419.723 404.231ZM377.715 204.646L377.008 203.939L376.3 204.646L307.556 273.39L306.849 274.098L307.556 274.805L376.3 343.549C395.596 362.845 427.164 362.845 446.459 343.549C465.755 324.254 465.755 292.686 446.459 273.39L377.715 204.646ZM204.439 376.507L203.732 377.214L204.439 377.922L290.37 463.852C309.665 483.148 341.233 483.148 360.529 463.852C379.824 444.557 379.824 412.989 360.529 393.693L274.598 307.763L273.891 307.056L273.184 307.763L204.439 376.507Z" stroke="#515151" stroke-width="2"/>
<path d="M430.421 413.085L429.245 413.177L429.529 414.322C438.34 449.951 428.761 489.407 400.99 517.178C358.661 559.507 290.093 559.507 247.764 517.178L247.057 516.47L246.35 517.178L208.397 555.131L171.151 517.885L209.104 479.932L209.811 479.225L209.104 478.517L170.444 439.857L169.737 439.15L169.03 439.857L131.077 477.81L93.8307 440.564L131.784 402.611L132.491 401.904L131.784 401.197L74.5006 343.914L111.747 306.668L149.7 344.621L150.407 345.328L151.114 344.621L344.414 151.321L345.122 150.613L344.414 149.906L306.461 111.953L343.707 74.7074L400.99 131.99L401.698 132.698L402.405 131.99L440.358 94.0375L477.604 131.283L439.651 169.236L438.943 169.944L439.651 170.651L478.311 209.311L479.018 210.018L479.725 209.311L517.678 171.358L554.924 208.604L514.458 249.07L513.908 249.619L514.305 250.288C539.011 291.848 533.266 346.242 497.641 381.867C478.483 401.025 454.932 411.17 430.421 413.085ZM383.075 188.566L382.367 187.859L381.66 188.566L304.34 265.887L303.633 266.594L304.34 267.301L381.66 344.621C403.314 366.275 438.741 366.275 460.395 344.621C482.048 322.968 482.048 287.54 460.395 265.887L383.075 188.566ZM188.36 381.867L187.653 382.574L188.36 383.281L285.01 479.932C306.664 501.585 342.091 501.585 363.744 479.932C385.398 458.278 385.398 422.851 363.744 401.197L267.094 304.547L266.387 303.84L265.68 304.547L188.36 381.867Z" stroke="#515151" stroke-width="2"/>
<path d="M441.381 422.156L440.205 422.248L440.488 423.393C450.31 463.107 439.633 507.088 408.678 538.043C361.495 585.226 285.063 585.226 237.88 538.043L237.173 537.336L236.466 538.043L194.12 580.389L152.481 538.75L194.827 496.405L195.534 495.697L194.827 494.99L151.774 451.937L151.067 451.23L150.36 451.937L108.014 494.283L66.3755 452.645L108.721 410.299L109.428 409.592L108.721 408.885L44.8491 345.012L86.4878 303.374L128.834 345.719L129.541 346.427L130.248 345.719L345.512 130.455L346.219 129.748L345.512 129.041L303.167 86.6948L344.805 45.0561L408.678 108.928L409.385 109.635L410.092 108.928L452.438 66.5826L494.076 108.221L451.73 150.567L451.023 151.274L451.73 151.981L494.783 195.034L495.49 195.741L496.198 195.034L538.543 152.688L580.182 194.327L535.038 239.471L534.488 240.021L534.885 240.689C562.425 287.015 556.02 347.648 516.31 387.358C494.956 408.712 468.703 420.022 441.381 422.156ZM388.565 172.094L387.858 171.386L387.151 172.094L301.045 258.199L300.338 258.906L301.045 259.614L387.151 345.719C411.221 369.789 450.601 369.789 474.671 345.719C498.741 321.65 498.741 282.269 474.671 258.199L388.565 172.094ZM171.887 387.358L171.179 388.065L171.887 388.772L279.519 496.405C303.588 520.474 342.969 520.474 367.039 496.405C391.108 472.335 391.108 432.954 367.039 408.885L259.407 301.252L258.699 300.545L257.992 301.252L171.887 387.358Z" stroke="#515151" stroke-width="2"/>
</svg>
