<svg width="598" height="342" viewBox="0 0 598 342" fill="none" xmlns="http://www.w3.org/2000/svg">
<circle cx="478.968" cy="94.8303" r="94.5757" fill="#FFF2D0"/>
<circle cx="478.968" cy="94.8304" r="65.841" fill="#FFE092"/>
<circle cx="478.968" cy="94.8304" r="36.6926" fill="white"/>
<path d="M487.984 89.0344C486.736 94.0254 478.968 91.4896 476.553 90.8054L478.767 82.0309C481.262 82.7554 489.272 83.8019 487.984 89.0344ZM475.466 95.3134L473.051 105.014C476.03 105.778 485.247 108.717 486.616 103.243C488.065 97.5271 478.445 96.0379 475.466 95.3134ZM518.01 104.571C512.617 126.145 490.802 139.266 469.228 133.873C447.654 128.479 434.544 106.664 439.926 85.0899C445.319 63.516 467.135 50.4107 488.709 55.788C510.242 61.1815 523.364 82.9969 518.01 104.571ZM487.863 78.9317L489.675 71.6867L485.247 70.6805L483.476 77.6437C482.309 77.3619 481.142 77.0802 479.934 76.8387L481.705 69.7145L477.318 68.668L475.507 75.8727C474.541 75.6312 473.575 75.43 472.689 75.1885L466.611 73.659L465.404 78.3682C465.404 78.3682 468.704 79.1329 468.624 79.1732C470.435 79.6159 470.757 80.7429 470.677 81.7492L465.726 101.592C465.525 102.156 464.881 102.88 463.713 102.679C463.754 102.719 460.493 101.874 460.493 101.874L458.32 106.905L464.035 108.354C465.122 108.636 466.169 108.918 467.215 109.159L465.364 116.485L469.791 117.612L471.602 110.327C472.81 110.649 473.977 110.93 475.104 111.252L473.293 118.457L477.72 119.584L479.572 112.259C487.018 113.667 492.734 113.104 495.068 106.302C497.081 100.868 495.068 97.6479 491.043 95.5951C493.941 94.8304 496.115 93.0191 496.718 89.0746C497.523 83.7214 493.418 80.8637 487.863 78.9317Z" fill="#FFB178"/>
<path d="M212.627 110.08H352.97C356.284 110.08 358.97 112.766 358.97 116.08V339.946H206.627V116.08C206.627 112.766 209.313 110.08 212.627 110.08Z" fill="#FFEAEA" stroke="black" stroke-width="4" stroke-linecap="round" stroke-linejoin="round"/>
<path d="M252.681 301.862H312.916C314.021 301.862 314.916 302.757 314.916 303.862V339.946H250.681V303.862C250.681 302.757 251.577 301.862 252.681 301.862Z" fill="#FBC1C1" stroke="black" stroke-width="4" stroke-linecap="round" stroke-linejoin="round"/>
<path d="M395.31 200.353H540.234C543.548 200.353 546.234 203.04 546.234 206.353V339.946H389.31V206.353C389.31 203.04 391.996 200.353 395.31 200.353Z" fill="#BCF7FF" stroke="black" stroke-width="4" stroke-linecap="round" stroke-linejoin="round"/>
<path d="M387.016 217.658H548.528C551.367 217.658 553.817 219.647 554.4 222.425L564.247 269.319C565.03 273.047 562.185 276.552 558.376 276.552H377.168C373.358 276.552 370.513 273.047 371.296 269.319L381.144 222.425C381.727 219.647 384.177 217.658 387.016 217.658Z" fill="#A7E1F4" stroke="black" stroke-width="4" stroke-linecap="round" stroke-linejoin="round"/>
<path d="M77.77 179.603H206.627V339.946H71.77V185.603C71.77 182.289 74.4563 179.603 77.77 179.603Z" fill="#FFF6C4" stroke="black" stroke-width="4" stroke-linecap="round" stroke-linejoin="round"/>
<rect x="408.306" y="288.685" width="68.6626" height="40.9225" rx="6" fill="#A7E1F4" stroke="black" stroke-width="4" stroke-linecap="round" stroke-linejoin="round"/>
<path d="M502.839 288.685H521.238C524.552 288.685 527.238 291.371 527.238 294.685V339.946H496.839V294.685C496.839 291.371 499.525 288.685 502.839 288.685Z" fill="#A7E1F4" stroke="black" stroke-width="4" stroke-linecap="round" stroke-linejoin="round"/>
<rect x="224.147" y="155.05" width="25.2523" height="32.3563" rx="2" fill="#FBC1C1" stroke="black" stroke-width="4" stroke-linecap="round" stroke-linejoin="round"/>
<rect x="256.71" y="155.05" width="25.2523" height="32.3563" rx="2" fill="#FBC1C1" stroke="black" stroke-width="4" stroke-linecap="round" stroke-linejoin="round"/>
<rect x="315.247" y="222.33" width="25.2523" height="32.3563" rx="2" fill="#FBC1C1" stroke="black" stroke-width="4" stroke-linecap="round" stroke-linejoin="round"/>
<path d="M126.711 307.59H151.687C152.791 307.59 153.687 308.485 153.687 309.59V339.946H124.711V309.59C124.711 308.485 125.606 307.59 126.711 307.59Z" fill="#FFE7A8" stroke="black" stroke-width="4" stroke-linecap="round" stroke-linejoin="round"/>
<rect x="86.9756" y="252.436" width="33.7905" height="21.3384" rx="2" fill="#FFE7A8" stroke="black" stroke-width="4" stroke-linecap="round" stroke-linejoin="round"/>
<rect x="157.402" y="207.186" width="33.7905" height="21.3384" rx="2" fill="#FFE7A8" stroke="black" stroke-width="4" stroke-linecap="round" stroke-linejoin="round"/>
<mask id="path-18-inside-1_32_40" fill="white">
<path fill-rule="evenodd" clip-rule="evenodd" d="M387.004 297.587C386.527 297.211 385.835 297.294 385.46 297.771L376.474 309.196V298.81H370.325V341.568H376.474V312.735C376.511 312.7 376.545 312.661 376.578 312.62L387.188 299.131C387.564 298.653 387.481 297.962 387.004 297.587Z"/>
</mask>
<path fill-rule="evenodd" clip-rule="evenodd" d="M387.004 297.587C386.527 297.211 385.835 297.294 385.46 297.771L376.474 309.196V298.81H370.325V341.568H376.474V312.735C376.511 312.7 376.545 312.661 376.578 312.62L387.188 299.131C387.564 298.653 387.481 297.962 387.004 297.587Z" fill="#C1B3B3"/>
<path d="M385.46 297.771L383.888 296.535L383.888 296.535L385.46 297.771ZM387.004 297.587L388.24 296.015L388.24 296.015L387.004 297.587ZM376.474 309.196H374.474C374.474 310.048 375.014 310.807 375.819 311.086C376.625 311.365 377.519 311.102 378.046 310.432L376.474 309.196ZM376.474 298.81H378.474C378.474 297.705 377.578 296.81 376.474 296.81V298.81ZM370.325 298.81V296.81C369.221 296.81 368.325 297.705 368.325 298.81H370.325ZM370.325 341.568H368.325C368.325 342.672 369.221 343.568 370.325 343.568V341.568ZM376.474 341.568V343.568C377.578 343.568 378.474 342.672 378.474 341.568H376.474ZM376.474 312.735L375.09 311.291C374.696 311.668 374.474 312.19 374.474 312.735H376.474ZM376.578 312.62L375.006 311.384L375.006 311.384L376.578 312.62ZM387.188 299.131L388.76 300.367V300.367L387.188 299.131ZM387.032 299.008C386.725 299.399 386.158 299.466 385.767 299.159L388.24 296.015C386.895 294.956 384.946 295.189 383.888 296.535L387.032 299.008ZM378.046 310.432L387.032 299.008L383.888 296.535L374.902 307.959L378.046 310.432ZM374.474 298.81V309.196H378.474V298.81H374.474ZM370.325 300.81H376.474V296.81H370.325V300.81ZM372.325 341.568V298.81H368.325V341.568H372.325ZM376.474 339.568H370.325V343.568H376.474V339.568ZM374.474 312.735V341.568H378.474V312.735H374.474ZM375.006 311.384C375.032 311.351 375.06 311.32 375.09 311.291L377.857 314.179C377.962 314.079 378.059 313.972 378.15 313.857L375.006 311.384ZM385.616 297.894L375.006 311.384L378.15 313.857L388.76 300.367L385.616 297.894ZM385.767 299.159C385.377 298.851 385.309 298.285 385.616 297.894L388.76 300.367C389.819 299.022 389.586 297.073 388.24 296.015L385.767 299.159Z" fill="black" mask="url(#path-18-inside-1_32_40)"/>
<mask id="path-20-inside-2_32_40" fill="white">
<path fill-rule="evenodd" clip-rule="evenodd" d="M365.382 230.473C370.832 230.473 375.843 232.357 379.798 235.508C380.299 235.486 380.804 235.474 381.311 235.474C398.133 235.474 411.856 248.039 412.582 263.798C421.407 268.041 427.06 274.567 427.06 281.887C427.06 294.674 409.811 305.04 388.534 305.04C378.484 305.04 369.333 302.727 362.474 298.939C360.346 299.584 358.089 299.93 355.75 299.93C342.964 299.93 332.598 289.565 332.598 276.778C332.598 268.879 336.553 261.905 342.592 257.726C342.354 256.395 342.229 255.025 342.229 253.626C342.229 240.839 352.595 230.473 365.382 230.473Z"/>
</mask>
<path fill-rule="evenodd" clip-rule="evenodd" d="M365.382 230.473C370.832 230.473 375.843 232.357 379.798 235.508C380.299 235.486 380.804 235.474 381.311 235.474C398.133 235.474 411.856 248.039 412.582 263.798C421.407 268.041 427.06 274.567 427.06 281.887C427.06 294.674 409.811 305.04 388.534 305.04C378.484 305.04 369.333 302.727 362.474 298.939C360.346 299.584 358.089 299.93 355.75 299.93C342.964 299.93 332.598 289.565 332.598 276.778C332.598 268.879 336.553 261.905 342.592 257.726C342.354 256.395 342.229 255.025 342.229 253.626C342.229 240.839 352.595 230.473 365.382 230.473Z" fill="#A9FAA2"/>
<path d="M379.798 235.508L377.306 238.637C378.062 239.24 379.012 239.548 379.978 239.504L379.798 235.508ZM412.582 263.798L408.586 263.982C408.654 265.452 409.523 266.766 410.849 267.403L412.582 263.798ZM362.474 298.939L364.408 295.437C363.463 294.916 362.347 294.798 361.314 295.111L362.474 298.939ZM342.592 257.726L344.868 261.015C346.155 260.124 346.805 258.564 346.529 257.022L342.592 257.726ZM382.291 232.38C377.653 228.684 371.77 226.473 365.382 226.473V234.473C369.895 234.473 374.033 236.029 377.306 238.637L382.291 232.38ZM381.311 231.474C380.744 231.474 380.179 231.487 379.618 231.512L379.978 239.504C380.419 239.484 380.864 239.474 381.311 239.474V231.474ZM416.578 263.614C415.745 245.54 400.086 231.474 381.311 231.474V239.474C396.181 239.474 407.967 250.539 408.586 263.982L416.578 263.614ZM410.849 267.403C419.061 271.351 423.06 276.808 423.06 281.887H431.06C431.06 272.327 423.753 264.731 414.315 260.193L410.849 267.403ZM423.06 281.887C423.06 286.327 420.045 291.026 413.715 294.83C407.465 298.587 398.571 301.04 388.534 301.04V309.04C399.774 309.04 410.144 306.31 417.836 301.687C425.45 297.111 431.06 290.235 431.06 281.887H423.06ZM388.534 301.04C379.06 301.04 370.592 298.853 364.408 295.437L360.54 302.44C368.074 306.601 377.909 309.04 388.534 309.04V301.04ZM355.75 303.93C358.486 303.93 361.134 303.525 363.634 302.767L361.314 295.111C359.558 295.643 357.692 295.93 355.75 295.93V303.93ZM328.598 276.778C328.598 291.774 340.755 303.93 355.75 303.93V295.93C345.173 295.93 336.598 287.356 336.598 276.778H328.598ZM340.315 254.437C333.244 259.33 328.598 267.511 328.598 276.778H336.598C336.598 270.247 339.863 264.479 344.868 261.015L340.315 254.437ZM338.229 253.626C338.229 255.262 338.375 256.868 338.654 258.43L346.529 257.022C346.333 255.923 346.229 254.788 346.229 253.626H338.229ZM365.382 226.473C350.386 226.473 338.229 238.63 338.229 253.626H346.229C346.229 243.048 354.804 234.473 365.382 234.473V226.473Z" fill="black" mask="url(#path-20-inside-2_32_40)"/>
<path d="M46.3707 339.928L595.296 339.928" stroke="black" stroke-width="4" stroke-linecap="round" stroke-linejoin="round"/>
<path d="M32.1879 339.928H2.24915" stroke="black" stroke-width="4" stroke-linecap="round" stroke-linejoin="round"/>
</svg>
