<svg width="64" height="20" viewBox="0 0 64 20" fill="none" xmlns="http://www.w3.org/2000/svg">
<path d="M21.1441 7.67713H20.5131C19.9909 7.66862 19.6586 7.78286 19.515 8.01712C19.4223 8.16873 19.3766 8.54214 19.3766 9.13826V13.6699H18.1123V8.97358C18.1123 7.64766 18.8373 6.98409 20.2857 6.98409H21.1445V7.67713H21.1441Z" fill="#151515"/>
<path d="M27.1066 9.02402C27.1066 9.47734 27.031 9.87597 26.8795 10.2202C26.6773 10.6814 26.3783 10.913 25.9829 10.913H24.2141V10.2202H25.2628C25.5067 10.2202 25.6881 10.0482 25.8061 9.70491C25.8899 9.46093 25.932 9.1887 25.932 8.88578C25.932 8.64271 25.9024 8.41939 25.8432 8.21886C25.7673 7.92475 25.6454 7.77831 25.4777 7.77831H24.2269C23.8815 7.77831 23.6501 7.92901 23.5318 8.23102C23.4562 8.41605 23.419 8.7135 23.419 9.1252V11.6303C23.419 12.1173 23.4647 12.4443 23.5574 12.6129C23.7007 12.856 23.9949 12.9772 24.4412 12.9772C24.2644 12.9772 25.0015 12.9772 26.6527 12.9772V13.6699H23.6964C23.0562 13.6699 22.6224 13.4682 22.3953 13.0653C22.2349 12.7721 22.1548 12.2817 22.1548 11.5929V9.15011C22.1548 8.47013 22.2349 7.984 22.3953 7.68989C22.6224 7.2861 23.0562 7.08466 23.6964 7.08466H25.9829C26.3697 7.08466 26.6691 7.32499 26.8795 7.80261C27.0313 8.16509 27.1066 8.57161 27.1066 9.02402Z" fill="#151515"/>
<path d="M32.9556 13.6699H29.6208C28.9882 13.6699 28.5589 13.4387 28.3318 12.9772C28.1632 12.6597 28.0791 12.1511 28.0791 11.4538V9.30081C28.0791 8.60442 28.1632 8.09337 28.3318 7.76554C28.5589 7.31252 28.9882 7.08495 29.6208 7.08495H31.0856V7.7786H30.1384C29.7927 7.7786 29.5577 7.93781 29.4308 8.25623C29.3635 8.45007 29.3296 8.75178 29.3296 9.16287V10.8382C29.3296 11.6349 29.3845 12.1602 29.4945 12.4118C29.6714 12.7897 30.0668 12.9775 30.6814 12.9775C30.8079 12.9775 30.9762 12.9775 31.1865 12.9775C31.4313 12.9775 31.6039 12.9775 31.7048 12.9775V5.33609H32.9556V13.6699Z" fill="#151515"/>
<path d="M39.1199 13.6699H35.785C35.1527 13.6699 34.7235 13.4387 34.4964 12.9772C34.3278 12.6597 34.2433 12.1511 34.2433 11.4538V9.30081C34.2433 8.60442 34.3278 8.09337 34.4964 7.76554C34.7235 7.31252 35.1527 7.08495 35.785 7.08495H37.2499V7.7786H36.3024C35.9573 7.7786 35.7216 7.93781 35.5954 8.25623C35.528 8.45007 35.4942 8.75178 35.4942 9.16287V10.8382C35.4942 11.6349 35.5488 12.1602 35.6591 12.4118C35.8359 12.7897 36.231 12.9775 36.8459 12.9775C36.9724 12.9775 37.141 12.9775 37.3511 12.9775C37.5953 12.9775 37.7684 12.9775 37.8693 12.9775V5.33609H39.1199V13.6699Z" fill="#151515"/>
<path d="M44.8424 13.6699H41.3301C40.8835 13.6699 40.5427 13.4433 40.307 12.99C40.1128 12.6302 40.0165 12.2048 40.0165 11.7184C40.0165 11.232 40.1128 10.7996 40.307 10.4217C40.5427 9.96074 40.8835 9.72861 41.3301 9.72861H43.023V10.4217C42.905 10.4217 42.7538 10.4217 42.5681 10.4217C42.3834 10.4128 42.2572 10.4086 42.1892 10.4086C41.8273 10.4086 41.5825 10.476 41.4566 10.6109C41.2969 10.7777 41.2161 11.1144 41.2161 11.6178C41.2161 11.9022 41.2545 12.1714 41.3304 12.423C41.4399 12.7925 41.5999 12.9766 41.8109 12.9766H43.5909V8.88547C43.5909 8.52482 43.5492 8.26505 43.4647 8.10523C43.3388 7.88738 43.1117 7.77831 42.7831 7.77831H41.1789V7.08466H43.301C43.9409 7.08466 44.3705 7.25754 44.5894 7.60178C44.7582 7.86216 44.8424 8.33098 44.8424 9.01156V13.6699Z" fill="#151515"/>
<path d="M48.7196 7.7783H47.0904V11.8068C47.0904 12.3267 47.17 12.6597 47.3304 12.8016C47.4569 12.9192 47.7724 12.9772 48.2775 12.9772V13.6699H47.3675C46.7188 13.6699 46.3002 13.5609 46.1109 13.343C45.9213 13.1242 45.8265 12.6879 45.8265 12.0326V5.34764H47.0901V7.08465H48.7193V7.7783H48.7196Z" fill="#151515"/>
<path d="M54.5686 11.5929C54.5686 12.2814 54.4842 12.7721 54.3159 13.0653C54.0882 13.4685 53.6589 13.6699 53.0273 13.6699H50.8164C50.1847 13.6699 49.7558 13.4682 49.5284 13.0653C49.3595 12.7721 49.2753 12.2817 49.2753 11.5929V9.15011C49.2753 8.47013 49.3595 7.984 49.5284 7.68989C49.7558 7.2861 50.1847 7.08466 50.8164 7.08466H53.0273C53.6592 7.08466 54.0882 7.2861 54.3159 7.68989C54.4842 7.984 54.5686 8.47013 54.5686 9.15011V11.5929ZM53.2925 9.13826C53.2925 8.71806 53.2583 8.41605 53.1916 8.23102C53.0736 7.92901 52.8419 7.77831 52.4965 7.77831H51.3475C51.0021 7.77831 50.7701 7.92901 50.6533 8.23102C50.5771 8.41605 50.539 8.71806 50.539 9.13826V11.4918C50.539 11.8527 50.6192 12.176 50.7789 12.4616C50.9722 12.8058 51.2338 12.9772 51.5621 12.9772H52.2825C52.7282 12.9772 53.0187 12.852 53.1532 12.6001C53.2461 12.4324 53.2925 12.1046 53.2925 11.6185V9.13826Z" fill="#151515"/>
<path d="M60 11.8445C60 12.272 59.9369 12.6542 59.8107 12.9896C59.6342 13.443 59.3601 13.6696 58.9897 13.6696H55.667V12.9769H58.3333C58.5349 12.9769 58.6909 12.8429 58.8001 12.5737C58.8757 12.3729 58.9141 12.1508 58.9141 11.9068C58.9141 11.6637 58.8757 11.4413 58.8001 11.2396C58.6909 10.9631 58.5349 10.8245 58.3333 10.8245H56.3621C55.974 10.8245 55.6756 10.5763 55.4646 10.0807C55.296 9.70429 55.2125 9.2926 55.2125 8.84809C55.2125 8.38596 55.3015 7.99615 55.4777 7.67682C55.6884 7.27363 56.0036 7.07219 56.4249 7.07219H59.2037V7.77799H56.867C56.6905 7.77799 56.556 7.91229 56.4621 8.18027C56.3953 8.36561 56.3615 8.57495 56.3615 8.8092C56.3615 9.03647 56.3953 9.24581 56.4621 9.43965C56.5557 9.69913 56.6901 9.82978 56.867 9.82978H58.9894C59.3433 9.82978 59.6131 10.0902 59.7979 10.6109C59.9326 10.9968 60 11.4079 60 11.8445Z" fill="#151515"/>
<path d="M16.5563 7.5723C16.3844 6.86862 15.9972 6.25154 15.5817 5.62929L15.3969 5.3525L15.2771 5.66271C15.1994 5.86415 15.2012 6.04098 15.2027 6.19715C15.2033 6.2409 15.2037 6.28435 15.2021 6.3275C15.1838 6.82274 15.2024 7.32255 15.2204 7.80625C15.2427 8.40602 15.2655 9.02614 15.2171 9.63259C15.1119 10.9421 14.6683 11.9691 13.8614 12.7721C12.6075 14.0199 11.1521 14.5155 9.53205 14.2478C6.87276 13.8066 5.18475 11.4759 5.60607 8.82622C5.89965 6.98013 6.93495 5.6855 8.68271 4.97909C9.23542 4.75546 9.81618 4.6871 10.311 4.64943C10.8183 4.61114 11.1527 4.25141 11.124 3.77439C11.0975 3.32411 10.7555 3.05825 10.2235 3.08195C9.73509 3.10352 9.22658 3.1886 8.71167 3.33474C7.07824 3.79809 5.82374 4.8062 4.87563 6.41591C3.27176 9.14008 3.9205 12.5691 6.41791 14.5684C7.54711 15.4723 8.89947 15.9195 10.2555 15.9195C11.7886 15.9195 13.326 15.3483 14.55 14.2193C16.5149 12.4066 17.1898 10.1707 16.5563 7.5723Z" fill="#E21E51"/>
<path d="M10.271 10.7686C9.87958 10.7282 9.53631 10.5292 9.32992 10.2223C9.12292 9.91516 9.07018 9.53902 9.18085 9.16317C9.34181 8.6181 9.64637 8.33462 10.1393 8.27173C10.3363 8.24651 10.5448 8.20762 10.7375 8.09368C11.0329 7.91898 11.1627 7.61606 11.0935 7.26179C11.0274 6.92484 10.7795 6.68086 10.4616 6.63954C10.2924 6.61766 10.068 6.60125 9.83751 6.66628C8.85831 6.94307 8.19188 7.4927 7.80044 8.34678C7.32761 9.37829 7.51266 10.6829 8.24066 11.4492C8.79489 12.0329 9.56741 12.3473 10.3485 12.3473C10.7094 12.3473 11.0725 12.2802 11.4167 12.141C12.5328 11.6908 13.2547 10.6085 13.2556 9.38406C13.2559 9.15132 13.2474 8.91828 13.2391 8.68555C13.2276 8.36835 13.216 8.04051 13.2285 7.72209C13.2675 6.68937 13.2611 5.64874 13.2486 4.67769C13.2346 3.62126 13.1843 3.55563 12.159 3.27064C12.0401 3.23722 11.9142 3.21747 11.8087 3.29373C11.7014 3.37151 11.6828 3.50337 11.678 3.60972C11.6545 4.1867 11.6557 4.76094 11.6575 5.36891C11.6587 5.80521 11.66 6.25823 11.6517 6.74071V6.74345C11.6517 6.97983 11.6542 7.23049 11.656 7.49088C11.6618 8.11252 11.6679 8.81711 11.6435 9.50681C11.631 9.86655 11.4618 10.2138 11.1792 10.459C10.9161 10.6884 10.585 10.8011 10.271 10.7686Z" fill="#E21E51"/>
</svg>
